<?xml version="1.0" encoding="UTF-8" standalone="no"?>
<!DOCTYPE svg PUBLIC "-//W3C//DTD SVG 1.1//EN"
 "http://www.w3.org/Graphics/SVG/1.1/DTD/svg11.dtd">
<!-- Generated by graphviz version 2.47.0 (20210316.0004)
 -->
<!-- Title: dependencies Pages: 1 -->
<svg width="678pt" height="211pt"
 viewBox="0.00 0.00 678.00 211.00" xmlns="http://www.w3.org/2000/svg" xmlns:xlink="http://www.w3.org/1999/xlink">
<g id="graph0" class="graph" transform="scale(1 1) rotate(0) translate(4 207)">
<title>dependencies</title>
<polygon fill="white" stroke="transparent" points="-4,4 -4,-207 674,-207 674,4 -4,4"/>
<text text-anchor="start" x="314.01" y="-42.4" font-family="Times-12" font-weight="bold" font-size="14.00">Legend</text>
<polygon fill="#ffffb3" stroke="transparent" points="101,-10 101,-30 121,-30 121,-10 101,-10"/>
<text text-anchor="start" x="124.63" y="-15.4" font-family="Times-12" font-size="14.00"> &#160;Declarations</text>
<polygon fill="#8dd3c7" stroke="transparent" points="214,-10 214,-30 234,-30 234,-10 214,-10"/>
<text text-anchor="start" x="237.73" y="-15.4" font-family="Times-12" font-size="14.00"> &#160;Module</text>
<polygon fill="#80b1d3" stroke="transparent" points="300,-10 300,-30 320,-30 320,-10 300,-10"/>
<text text-anchor="start" x="323.78" y="-15.4" font-family="Times-12" font-size="14.00"> &#160;Bootstrap</text>
<polygon fill="#fdb462" stroke="transparent" points="397,-10 397,-30 417,-30 417,-10 397,-10"/>
<text text-anchor="start" x="420.67" y="-15.4" font-family="Times-12" font-size="14.00"> &#160;Providers</text>
<polygon fill="#fb8072" stroke="transparent" points="493,-10 493,-30 513,-30 513,-10 493,-10"/>
<text text-anchor="start" x="516.73" y="-15.4" font-family="Times-12" font-size="14.00"> &#160;Exports</text>
<g id="clust1" class="cluster">
<title>cluster_CommentsModule</title>
<polygon fill="none" stroke="black" stroke-dasharray="1,5" points="8,-70 8,-195 662,-195 662,-70 8,-70"/>
</g>
<g id="clust6" class="cluster">
<title>cluster_CommentsModule_providers</title>
<polygon fill="none" stroke="black" points="474,-78 474,-130 654,-130 654,-78 474,-78"/>
</g>
<g id="clust3" class="cluster">
<title>cluster_CommentsModule_imports</title>
<polygon fill="none" stroke="black" points="16,-78 16,-130 466,-130 466,-78 16,-78"/>
</g>
<!-- AuthModule -->
<g id="node1" class="node">
<title>AuthModule</title>
<polygon fill="#8dd3c7" stroke="black" points="457.55,-122 454.55,-126 433.55,-126 430.55,-122 370.45,-122 370.45,-86 457.55,-86 457.55,-122"/>
<text text-anchor="middle" x="414" y="-99.8" font-family="Times,serif" font-size="14.00">AuthModule</text>
</g>
<!-- CommentsModule -->
<g id="node5" class="node">
<title>CommentsModule</title>
<polygon fill="#8dd3c7" stroke="black" points="356.22,-187 353.22,-191 332.22,-191 329.22,-187 235.78,-187 235.78,-151 356.22,-151 356.22,-187"/>
<text text-anchor="middle" x="296" y="-164.8" font-family="Times,serif" font-size="14.00">CommentsModule</text>
</g>
<!-- AuthModule&#45;&gt;CommentsModule -->
<g id="edge1" class="edge">
<title>AuthModule&#45;&gt;CommentsModule</title>
<path fill="none" stroke="black" d="M414,-122.02C414,-139.37 414,-163 414,-163 414,-163 366.38,-163 366.38,-163"/>
<polygon fill="black" stroke="black" points="366.38,-159.5 356.38,-163 366.38,-166.5 366.38,-159.5"/>
</g>
<!-- CommonModule -->
<g id="node2" class="node">
<title>CommonModule</title>
<polygon fill="#8dd3c7" stroke="black" points="351.67,-122 348.67,-126 327.67,-126 324.67,-122 240.33,-122 240.33,-86 351.67,-86 351.67,-122"/>
<text text-anchor="middle" x="296" y="-99.8" font-family="Times,serif" font-size="14.00">CommonModule</text>
</g>
<!-- CommonModule&#45;&gt;CommentsModule -->
<g id="edge2" class="edge">
<title>CommonModule&#45;&gt;CommentsModule</title>
<path fill="none" stroke="black" d="M296,-122.11C296,-122.11 296,-140.99 296,-140.99"/>
<polygon fill="black" stroke="black" points="292.5,-140.99 296,-150.99 299.5,-140.99 292.5,-140.99"/>
</g>
<!-- PostsModule -->
<g id="node3" class="node">
<title>PostsModule</title>
<polygon fill="#8dd3c7" stroke="black" points="222.61,-122 219.61,-126 198.61,-126 195.61,-122 133.39,-122 133.39,-86 222.61,-86 222.61,-122"/>
<text text-anchor="middle" x="178" y="-99.8" font-family="Times,serif" font-size="14.00">PostsModule</text>
</g>
<!-- PostsModule&#45;&gt;CommentsModule -->
<g id="edge3" class="edge">
<title>PostsModule&#45;&gt;CommentsModule</title>
<path fill="none" stroke="black" d="M178,-122.02C178,-139.37 178,-163 178,-163 178,-163 225.62,-163 225.62,-163"/>
<polygon fill="black" stroke="black" points="225.62,-166.5 235.62,-163 225.62,-159.5 225.62,-166.5"/>
</g>
<!-- UsersModule -->
<g id="node4" class="node">
<title>UsersModule</title>
<polygon fill="#8dd3c7" stroke="black" points="115.92,-122 112.92,-126 91.92,-126 88.92,-122 24.08,-122 24.08,-86 115.92,-86 115.92,-122"/>
<text text-anchor="middle" x="70" y="-99.8" font-family="Times,serif" font-size="14.00">UsersModule</text>
</g>
<!-- UsersModule&#45;&gt;CommentsModule -->
<g id="edge4" class="edge">
<title>UsersModule&#45;&gt;CommentsModule</title>
<path fill="none" stroke="black" d="M70,-122.28C70,-143.32 70,-175 70,-175 70,-175 225.73,-175 225.73,-175"/>
<polygon fill="black" stroke="black" points="225.73,-178.5 235.73,-175 225.73,-171.5 225.73,-178.5"/>
</g>
<!-- CommentsService -->
<g id="node6" class="node">
<title>CommentsService</title>
<ellipse fill="#fdb462" stroke="black" cx="564" cy="-104" rx="81.68" ry="18"/>
<text text-anchor="middle" x="564" y="-99.8" font-family="Times,serif" font-size="14.00">CommentsService</text>
</g>
<!-- CommentsService&#45;&gt;CommentsModule -->
<g id="edge5" class="edge">
<title>CommentsService&#45;&gt;CommentsModule</title>
<path fill="none" stroke="black" d="M564,-122.28C564,-143.32 564,-175 564,-175 564,-175 366.14,-175 366.14,-175"/>
<polygon fill="black" stroke="black" points="366.14,-171.5 356.14,-175 366.14,-178.5 366.14,-171.5"/>
</g>
</g>
</svg>
