<?xml version="1.0" encoding="UTF-8" standalone="no"?>
<!DOCTYPE svg PUBLIC "-//W3C//DTD SVG 1.1//EN"
 "http://www.w3.org/Graphics/SVG/1.1/DTD/svg11.dtd">
<!-- Generated by graphviz version 2.47.0 (20210316.0004)
 -->
<!-- Title: dependencies Pages: 1 -->
<svg width="750pt" height="211pt"
 viewBox="0.00 0.00 750.00 211.00" xmlns="http://www.w3.org/2000/svg" xmlns:xlink="http://www.w3.org/1999/xlink">
<g id="graph0" class="graph" transform="scale(1 1) rotate(0) translate(4 207)">
<title>dependencies</title>
<polygon fill="white" stroke="transparent" points="-4,4 -4,-207 746,-207 746,4 -4,4"/>
<text text-anchor="start" x="350.01" y="-42.4" font-family="Times-12" font-weight="bold" font-size="14.00">Legend</text>
<polygon fill="#ffffb3" stroke="transparent" points="137,-10 137,-30 157,-30 157,-10 137,-10"/>
<text text-anchor="start" x="160.63" y="-15.4" font-family="Times-12" font-size="14.00"> &#160;Declarations</text>
<polygon fill="#8dd3c7" stroke="transparent" points="250,-10 250,-30 270,-30 270,-10 250,-10"/>
<text text-anchor="start" x="273.73" y="-15.4" font-family="Times-12" font-size="14.00"> &#160;Module</text>
<polygon fill="#80b1d3" stroke="transparent" points="336,-10 336,-30 356,-30 356,-10 336,-10"/>
<text text-anchor="start" x="359.78" y="-15.4" font-family="Times-12" font-size="14.00"> &#160;Bootstrap</text>
<polygon fill="#fdb462" stroke="transparent" points="433,-10 433,-30 453,-30 453,-10 433,-10"/>
<text text-anchor="start" x="456.67" y="-15.4" font-family="Times-12" font-size="14.00"> &#160;Providers</text>
<polygon fill="#fb8072" stroke="transparent" points="529,-10 529,-30 549,-30 549,-10 529,-10"/>
<text text-anchor="start" x="552.73" y="-15.4" font-family="Times-12" font-size="14.00"> &#160;Exports</text>
<g id="clust1" class="cluster">
<title>cluster_ChatsModule</title>
<polygon fill="none" stroke="black" stroke-dasharray="1,5" points="8,-70 8,-195 734,-195 734,-70 8,-70"/>
</g>
<g id="clust6" class="cluster">
<title>cluster_ChatsModule_providers</title>
<polygon fill="none" stroke="black" points="368,-78 368,-130 726,-130 726,-78 368,-78"/>
</g>
<g id="clust3" class="cluster">
<title>cluster_ChatsModule_imports</title>
<polygon fill="none" stroke="black" points="16,-78 16,-130 360,-130 360,-78 16,-78"/>
</g>
<!-- AuthModule -->
<g id="node1" class="node">
<title>AuthModule</title>
<polygon fill="#8dd3c7" stroke="black" points="351.55,-122 348.55,-126 327.55,-126 324.55,-122 264.45,-122 264.45,-86 351.55,-86 351.55,-122"/>
<text text-anchor="middle" x="308" y="-99.8" font-family="Times,serif" font-size="14.00">AuthModule</text>
</g>
<!-- ChatsModule -->
<g id="node4" class="node">
<title>ChatsModule</title>
<polygon fill="#8dd3c7" stroke="black" points="353.94,-187 350.94,-191 329.94,-191 326.94,-187 262.06,-187 262.06,-151 353.94,-151 353.94,-187"/>
<text text-anchor="middle" x="308" y="-164.8" font-family="Times,serif" font-size="14.00">ChatsModule</text>
</g>
<!-- AuthModule&#45;&gt;ChatsModule -->
<g id="edge1" class="edge">
<title>AuthModule&#45;&gt;ChatsModule</title>
<path fill="none" stroke="black" d="M308,-122.11C308,-122.11 308,-140.99 308,-140.99"/>
<polygon fill="black" stroke="black" points="304.5,-140.99 308,-150.99 311.5,-140.99 304.5,-140.99"/>
</g>
<!-- CommonModule -->
<g id="node2" class="node">
<title>CommonModule</title>
<polygon fill="#8dd3c7" stroke="black" points="245.67,-122 242.67,-126 221.67,-126 218.67,-122 134.33,-122 134.33,-86 245.67,-86 245.67,-122"/>
<text text-anchor="middle" x="190" y="-99.8" font-family="Times,serif" font-size="14.00">CommonModule</text>
</g>
<!-- CommonModule&#45;&gt;ChatsModule -->
<g id="edge2" class="edge">
<title>CommonModule&#45;&gt;ChatsModule</title>
<path fill="none" stroke="black" d="M190,-122.02C190,-139.37 190,-163 190,-163 190,-163 252.04,-163 252.04,-163"/>
<polygon fill="black" stroke="black" points="252.04,-166.5 262.04,-163 252.04,-159.5 252.04,-166.5"/>
</g>
<!-- UsersModule -->
<g id="node3" class="node">
<title>UsersModule</title>
<polygon fill="#8dd3c7" stroke="black" points="115.92,-122 112.92,-126 91.92,-126 88.92,-122 24.08,-122 24.08,-86 115.92,-86 115.92,-122"/>
<text text-anchor="middle" x="70" y="-99.8" font-family="Times,serif" font-size="14.00">UsersModule</text>
</g>
<!-- UsersModule&#45;&gt;ChatsModule -->
<g id="edge3" class="edge">
<title>UsersModule&#45;&gt;ChatsModule</title>
<path fill="none" stroke="black" d="M70,-122.28C70,-143.32 70,-175 70,-175 70,-175 252.11,-175 252.11,-175"/>
<polygon fill="black" stroke="black" points="252.11,-178.5 262.11,-175 252.11,-171.5 252.11,-178.5"/>
</g>
<!-- ChatsMessagesService -->
<g id="node5" class="node">
<title>ChatsMessagesService</title>
<ellipse fill="#fdb462" stroke="black" cx="618" cy="-104" rx="99.55" ry="18"/>
<text text-anchor="middle" x="618" y="-99.8" font-family="Times,serif" font-size="14.00">ChatsMessagesService</text>
</g>
<!-- ChatsMessagesService&#45;&gt;ChatsModule -->
<g id="edge4" class="edge">
<title>ChatsMessagesService&#45;&gt;ChatsModule</title>
<path fill="none" stroke="black" d="M618,-122.28C618,-143.32 618,-175 618,-175 618,-175 363.74,-175 363.74,-175"/>
<polygon fill="black" stroke="black" points="363.74,-171.5 353.74,-175 363.74,-178.5 363.74,-171.5"/>
</g>
<!-- ChatsService -->
<g id="node6" class="node">
<title>ChatsService</title>
<ellipse fill="#fdb462" stroke="black" cx="438" cy="-104" rx="61.97" ry="18"/>
<text text-anchor="middle" x="438" y="-99.8" font-family="Times,serif" font-size="14.00">ChatsService</text>
</g>
<!-- ChatsService&#45;&gt;ChatsModule -->
<g id="edge5" class="edge">
<title>ChatsService&#45;&gt;ChatsModule</title>
<path fill="none" stroke="black" d="M438,-122.02C438,-139.37 438,-163 438,-163 438,-163 363.83,-163 363.83,-163"/>
<polygon fill="black" stroke="black" points="363.83,-159.5 353.83,-163 363.83,-166.5 363.83,-159.5"/>
</g>
</g>
</svg>
